<svg xmlns="http://www.w3.org/2000/svg" width="25.001" height="30"><path data-name="shopping bag" d="M23.41 8.18a.23.23 0 0 0-.227-.217h-4.091v-1.17a6.594 6.594 0 1 0-13.182 0v1.171H1.82a.23.23 0 0 0-.227.217L0 29.748a.238.238 0 0 0 .06.177.223.223 0 0 0 .168.075h24.546a.224.224 0 0 0 .167-.075.239.239 0 0 0 .06-.177zM7.729 6.793a4.775 4.775 0 1 1 9.545 0v1.171H7.729zm-.909 7.736a2.312 2.312 0 0 1-2.273-2.345 2.217 2.217 0 0 1 1.364-2.149v2.149a.91.91 0 1 0 1.818 0v-2.15a2.222 2.222 0 0 1 1.364 2.148 2.312 2.312 0 0 1-2.273 2.344zm11.364 0a2.312 2.312 0 0 1-2.273-2.345 2.217 2.217 0 0 1 1.364-2.149v2.149a.91.91 0 1 0 1.818 0v-2.15a2.222 2.222 0 0 1 1.364 2.148 2.312 2.312 0 0 1-2.274 2.344z" fill="#fff"/></svg>